<?xml version="1.0" encoding="UTF-8" standalone="no"?>
<svg
   xmlns:dc="http://purl.org/dc/elements/1.1/"
   xmlns:cc="http://creativecommons.org/ns#"
   xmlns:rdf="http://www.w3.org/1999/02/22-rdf-syntax-ns#"
   xmlns:svg="http://www.w3.org/2000/svg"
   xmlns="http://www.w3.org/2000/svg"
   xmlns:sodipodi="http://sodipodi.sourceforge.net/DTD/sodipodi-0.dtd"
   xmlns:inkscape="http://www.inkscape.org/namespaces/inkscape"
   sodipodi:docname="no-scritch.svg"
   inkscape:version="1.0 (4035a4f, 2020-05-01)"
   id="svg8"
   version="1.1"
   viewBox="0 0 132.29166 132.29167"
   height="500"
   width="500">
  <defs
     id="defs2" />
  <sodipodi:namedview
     inkscape:window-maximized="0"
     inkscape:window-y="89"
     inkscape:window-x="735"
     inkscape:window-height="1174"
     inkscape:window-width="1252"
     units="px"
     showgrid="false"
     inkscape:document-rotation="0"
     inkscape:current-layer="g1042"
     inkscape:document-units="mm"
     inkscape:cy="333.96378"
     inkscape:cx="194.8523"
     inkscape:zoom="0.7"
     inkscape:pageshadow="2"
     inkscape:pageopacity="0.0"
     borderopacity="1.0"
     bordercolor="#666666"
     pagecolor="#ffffff"
     id="base" />
  <metadata
     id="metadata5">
    <rdf:RDF>
      <cc:Work
         rdf:about="">
        <dc:format>image/svg+xml</dc:format>
        <dc:type
           rdf:resource="http://purl.org/dc/dcmitype/StillImage" />
        <dc:title></dc:title>
      </cc:Work>
    </rdf:RDF>
  </metadata>
  <g
     sodipodi:insensitive="true"
     style="display:inline"
     id="layer1"
     inkscape:groupmode="layer"
     inkscape:label="No scritch">
    <g
       transform="matrix(0.66645998,0,0,0.68573158,1.0631749,44.087477)"
       id="g3612">
      <path
         d="m 15.454,21.608 4.879,25.876 c -3.7786,6.3618 -5.9245,13.63 -5.9245,21.346 0,25.017 22.513,45.305 50.271,45.305 27.758,0 50.315,-20.288 50.315,-45.305 0,-7.4745 -2.0588,-14.519 -5.6196,-20.736 l 4.879,-25.833 -20.562,9.5402 c -8.1959,-5.2251 -18.217,-8.3205 -29.013,-8.3205 -10.481,0 -20.213,2.8909 -28.272,7.8413 l -20.948,-9.714 z"
         style="fill:none;stroke:#000000;stroke-width:6;stroke-linecap:round;stroke-linejoin:round"
         id="path3612" />
      <path
         d="m 15.454,21.608 4.879,25.876 c -3.7786,6.3618 -5.9245,13.63 -5.9245,21.346 0,25.017 22.513,45.305 50.271,45.305 27.758,0 50.315,-20.288 50.315,-45.305 0,-7.4745 -2.0588,-14.519 -5.6196,-20.736 l 4.879,-25.833 -20.562,9.5402 c -8.1959,-5.2251 -18.217,-8.3205 -29.013,-8.3205 -10.481,0 -20.213,2.8909 -28.272,7.8413 l -20.948,-9.714 z"
         style="fill:#ffffff;stroke:#000000;stroke-width:3.9782;stroke-linecap:round;stroke-linejoin:round"
         id="path3478" />
      <circle
         r="4"
         cy="48"
         cx="72"
         transform="matrix(1.9388,0.8723,-0.8723,1.9388,-50.299,-95.029)"
         style="fill:#000000"
         id="path3183" />
      <circle
         r="4"
         cy="48"
         cx="72"
         transform="matrix(0.76796,0.34552,-0.34552,0.76796,11.205,-1.3029)"
         style="fill:#ffffff"
         id="path3185" />
      <circle
         r="4"
         cy="48"
         cx="72"
         transform="matrix(1.9388,0.8723,-0.8723,1.9388,-15.389,-95.1)"
         style="fill:#000000"
         id="path3195" />
      <circle
         r="4"
         cy="48"
         cx="72"
         transform="matrix(0.76796,0.34552,-0.34552,0.76796,46.115,-1.3742)"
         style="fill:#ffffff"
         id="path3197" />
      <path
         d="m 41.227,86.168 c 0.71997,5.451 3.9594,11.035 11.152,11.152 9.5596,0.15794 17.384,-10.258 19.682,-17.547 -5.2586,-0.76083 -10.517,-0.71929 -15.776,-0.23408 2.2988,6.9385 10.416,17.652 18.397,17.781 7.6568,0.12382 10.288,-4.9103 11.152,-11.152"
         style="fill:none;stroke:#000000;stroke-width:2.788;stroke-linecap:round;stroke-linejoin:round"
         sodipodi:nodetypes="csccsc"
         id="path3588" />
    </g>
    <g
       transform="matrix(-0.26458333,0,0,-0.1607607,125.71116,44.953218)"
       id="g1002"
       style="overflow:visible">
      <path
         id="path3105"
         fill="#f5e0cd"
         clip-rule="evenodd"
         d="m 271,133.14 c 4.592,1.838 10.184,-0.277 16,-2 -0.024,5.31 -4.236,6.431 -3,13 2.817,-4.516 3.734,-10.932 6,-16 -0.229,-4.104 -3.132,-5.535 -5,-8 0.714,-14.453 24.907,-31.327 31,-11 -4.174,0.827 -9.287,4.917 -14,2 -1.554,3.78 -1.951,8.716 -2,14 1.117,4.55 7.08,4.254 13,4 1.478,23.035 -6.252,41.439 -29,37 -1.383,-5.144 0.844,-13.279 0,-21 -1.055,4.612 -9.562,1.771 -12,5 -6.61,-2.18 -3.38,-12.56 -1,-17 z"
         fill-rule="evenodd" />
      <path
         id="path3109"
         fill="#f5e0cd"
         clip-rule="evenodd"
         d="m 313,125.14 c -5.024,-1.167 -8.718,2.553 -12,0 0.007,-4.327 2.321,-6.346 2,-11 6.192,1.825 10.324,-3.63 13,-2 -0.2,5.14 -2.64,8.03 -3,13 z"
         fill-rule="evenodd" />
      <path
         id="path3111"
         fill="#f5e0cd"
         clip-rule="evenodd"
         d="m 268,149.14 c 2.403,3.597 8.918,3.082 15,3 -0.492,21.528 -7.853,61.67 -40,46 0.744,-16.256 5.623,-28.377 12,-39 -16.502,-18.84 15.388,-53.628 33,-32 -2.079,3.941 -12.264,5.042 -17,3 -3.34,3.53 -5.19,13.21 -3,19 z"
         fill-rule="evenodd" />
      <path
         id="path3117"
         fill="#f5e0cd"
         clip-rule="evenodd"
         d="m 228,182.14 c 1.562,4.486 12.311,3.861 14,0 2.589,11.636 -4.719,21.291 -9,30 -6.998,14.236 -14.289,26.938 -38,21 1.168,-12.554 8.496,-27.464 19,-34 -2.082,-6.584 -4.56,-12.774 -10,-16 -0.416,-23.783 35.293,-51.764 48,-23 -5.42,3.247 -12.535,4.799 -20,6 0.27,6.94 -4.03,9.31 -4,16 z"
         fill-rule="evenodd" />
      <path
         id="path3119"
         fill="#f5e0cd"
         clip-rule="evenodd"
         d="m 241,182.14 c -4.276,0.091 -7.324,2.004 -11,0 0.758,-5.909 2.188,-11.146 4,-16 4.696,1.723 12.146,0.17 15,-3 2.35,3.53 -5.41,13.8 -8,19 z"
         fill-rule="evenodd" />
      <path
         id="path3121"
         fill="#f5e0cd"
         clip-rule="evenodd"
         d="m 180,212.14 c 0.385,-3.282 2.924,-4.409 4,-7 5.74,2.432 13.053,2.149 20,1 -2.88,7.19 -16.04,12.93 -24,6 z"
         fill-rule="evenodd" />
      <path
         id="path3123"
         clip-rule="evenodd"
         d="m 210,40.143 c 36.762,13.238 43.709,56.292 72,78 5.777,-2.977 7.732,-16.783 17,-20 4,-1.389 7.428,-0.303 13,0 10.343,6.078 3.548,14.573 3,28 -0.195,4.777 1.244,9.318 1,13 -1.073,16.164 -11.542,29.482 -19,34 h -10 c -6.322,17.735 -17.99,39.472 -44,31 -9.621,16.428 -19.951,42.651 -50,32 -11.928,8.096 -24.301,19.789 -39,18 -23.636,-2.876 -28.142,-45.829 -39,-66 -4.59,-8.526 -10.595,-15.543 -14,-22 -6.166,-11.693 -6.056,-21.342 -20,-11 -15.843,11.751 -24.442,41.505 -59,35 -7.082,-1.333 -22.01,-9.016 -22,-19 0.012,-12.379 30.214,-23.41 35,-30 2.743,-3.777 3.854,-9.537 7,-14 2.464,-3.496 7.59,-6.041 10,-10 3.83,-6.293 3.166,-15.789 7,-22 2.591,-4.197 7.75,-7.416 12,-13 7.9,-10.38 11.488,-22.684 25,-27 3.112,-6.239 -0.192,-10.285 1,-17 7.48,-42.113 112.96,-59.686 113,2.003 z m -25,-2 c 7.992,0.008 16.368,-0.368 23,1 -4.239,-58.268 -119.31,-42.928 -109,15 11.893,0.22 15.396,-13.262 25,-12 -2.661,4.006 -10.421,2.912 -12,8 2.932,0.275 3.714,-4.006 5,0 -10.791,5.566 -21.709,5.517 -30,12 -11.457,8.959 -14.714,25.053 -27,33 -2.056,16.277 -8.773,27.893 -19,36 -1.963,6.111 -3.977,11.015 -8,15 -6.627,6.565 -30.136,15.4 -31,23 -0.945,8.312 13.286,15.702 21,17 22.465,3.781 45.802,-11.62 46,-33 2.168,-0.168 0.453,3.547 1,5 7.986,-4.014 11.273,-12.727 21,-15 0.637,2.182 -2.834,3.182 1,3 4.051,1.707 5.79,3.996 8,8 13.697,24.815 27.148,55.435 36,83 5.212,3.787 8.952,9.048 14,13 24.377,-1.958 46.174,-11.825 46,-35 -11.795,8.502 -23.371,-6.81 -11,-13 8.224,6.919 19.414,1.321 27,-3 -1.973,-7.693 -6.827,-12.506 -12,-17 -31.046,-4.711 -35.648,22.351 -47,34 1.762,-1.948 5.387,-7.222 3,-10 -4.166,1.523 -9.605,7.031 -12,7 2.6,-5.066 7.393,-7.94 15,-8 5.207,-9.529 16.791,-21.521 -2,-26 3.405,-1.733 5.865,0.769 11,0 1.258,2.742 2.26,5.739 5,7 7.192,-5.211 21.129,-10.163 31,-4 1.646,-7.313 -2.324,-9.01 -5,-12 -7.381,-0.714 -12.069,1.264 -17,3 3.906,-6.133 19.471,-6.98 23,0 5.18,-15.962 22.953,-35.627 43,-24 2.234,-18.1 12.107,-28.56 28,-33 C 247.86,87.947 240.88,38.6 185,38.146 Z m 19,168 c -6.947,1.149 -14.26,1.432 -20,-1 -1.076,2.591 -3.615,3.718 -4,7 7.96,6.93 21.12,1.19 24,-6 z m 28,-40 c 7.465,-1.201 14.58,-2.753 20,-6 -12.707,-28.764 -48.416,-0.783 -48,23 5.44,3.226 7.918,9.416 10,16 -10.504,6.536 -17.832,21.446 -19,34 23.711,5.938 31.002,-6.764 38,-21 4.281,-8.709 11.589,-18.364 9,-30 -1.689,3.861 -12.438,4.486 -14,0 -0.03,-6.69 4.27,-9.06 4,-16 z m 17,-3 c -2.854,3.17 -10.304,4.723 -15,3 -1.812,4.854 -3.242,10.091 -4,16 3.676,2.004 6.724,0.091 11,0 2.59,-5.2 10.35,-15.47 8,-19 z m 22,-33 c 4.736,2.042 14.921,0.941 17,-3 -17.612,-21.628 -49.502,13.16 -33,32 -6.377,10.623 -11.256,22.744 -12,39 32.147,15.67 39.508,-24.472 40,-46 -6.082,0.082 -12.597,0.597 -15,-3 -2.19,-5.79 -0.34,-15.47 3,-19 z m 1,20 c 2.438,-3.229 10.945,-0.388 12,-5 0.844,7.721 -1.383,15.856 0,21 22.748,4.439 30.478,-13.965 29,-37 -5.92,0.254 -11.883,0.55 -13,-4 0.049,-5.284 0.446,-10.22 2,-14 4.713,2.917 9.826,-1.173 14,-2 -6.093,-20.327 -30.286,-3.453 -31,11 1.868,2.465 4.771,3.896 5,8 -2.266,5.068 -3.183,11.484 -6,16 -1.236,-6.569 2.976,-7.69 3,-13 -5.816,1.723 -11.408,3.838 -16,2 -2.38,4.44 -5.61,14.82 1,17 z m 44,-38 c -2.676,-1.63 -6.808,3.825 -13,2 0.321,4.654 -1.993,6.673 -2,11 3.282,2.553 6.976,-1.167 12,0 0.36,-4.97 2.8,-7.86 3,-13 z"
         fill-rule="evenodd" />
      <path
         id="path3129"
         clip-rule="evenodd"
         d="m 144,119.14 c -6.497,6.17 -14.221,11.113 -24,14 7.88,-4.79 16.07,-9.26 24,-14 z"
         fill-rule="evenodd" />
      <path
         id="path3131"
         style="fill:#f5e0cd;fill-rule:evenodd"
         d="m 276,116.14 c -15.893,4.44 -25.766,14.9 -28,33 -20.047,-11.627 -37.82,8.038 -43,24 -3.529,-6.98 -19.094,-6.133 -23,0 4.931,-1.736 9.619,-3.714 17,-3 2.676,2.99 6.646,4.687 5,12 -9.871,-6.163 -23.808,-1.211 -31,4 -2.74,-1.261 -3.742,-4.258 -5,-7 -5.135,0.769 -7.595,-1.733 -11,0 18.791,4.479 7.207,16.471 2,26 -7.607,0.06 -12.4,2.934 -15,8 2.395,0.031 7.834,-5.477 12,-7 2.387,2.778 -1.238,8.052 -3,10 11.352,-11.649 15.954,-38.711 47,-34 5.173,4.494 10.027,9.307 12,17 -7.586,4.321 -18.776,9.919 -27,3 -12.371,6.19 -0.795,21.502 11,13 0.174,23.175 -21.623,33.042 -46,35 -5.048,-3.952 -8.788,-9.213 -14,-13 -8.852,-27.565 -22.303,-58.185 -36,-83 -2.21,-4.004 -3.949,-6.293 -8,-8 -3.834,0.182 -0.363,-0.818 -1,-3 -9.727,2.273 -13.014,10.986 -21,15 -0.547,-1.453 1.168,-5.168 -1,-5 -0.198,21.38 -23.535,36.781 -46,33 -7.714,-1.298 -21.945,-8.688 -21,-17 0.864,-7.6 24.373,-16.435 31,-23 4.023,-3.985 6.037,-8.889 8,-15 10.227,-8.107 16.944,-19.723 19,-36 12.286,-7.947 15.543,-24.041 27,-33 8.291,-6.483 19.209,-6.434 30,-12 -1.286,-4.006 -2.068,0.275 -5,0 1.579,-5.088 9.339,-3.994 12,-8 -9.604,-1.262 -13.107,12.22 -25,12 -10.31,-57.928 104.76,-73.268 109,-15 -6.632,-1.368 -15.008,-0.992 -23,-1 55.879,0.454 62.865,49.801 91,78 z m -156,17 c 9.779,-2.887 17.503,-7.83 24,-14 -7.929,4.738 -16.123,9.211 -24,14 z m -12,1 c 5.53,8.531 21.141,-0.351 26,-5 -7.526,2.576 -17.068,10.02 -26,5 z"
         sodipodi:nodetypes="cccccccccccccccccccccccccsccccccccccccccccc"
         inkscape:connector-curvature="0"
         clip-rule="evenodd" />
      <path
         id="path3133"
         clip-rule="evenodd"
         d="m 134,129.14 c -4.859,4.649 -20.47,13.531 -26,5 8.93,5.02 18.47,-2.42 26,-5 z"
         fill-rule="evenodd" />
    </g>
  </g>
  <g
     sodipodi:insensitive="true"
     style="display:none"
     inkscape:label="No scritch copy"
     inkscape:groupmode="layer"
     id="g1042">
    <g
       style="overflow:visible"
       id="g1040"
       transform="matrix(-0.25827688,-0.05742291,0.03489013,-0.15692891,103.52025,97.214098)">
      <path
         fill-rule="evenodd"
         d="m 271,133.14 c 4.592,1.838 10.184,-0.277 16,-2 -0.024,5.31 -4.236,6.431 -3,13 2.817,-4.516 3.734,-10.932 6,-16 -0.229,-4.104 -3.132,-5.535 -5,-8 0.714,-14.453 24.907,-31.327 31,-11 -4.174,0.827 -9.287,4.917 -14,2 -1.554,3.78 -1.951,8.716 -2,14 1.117,4.55 7.08,4.254 13,4 1.478,23.035 -6.252,41.439 -29,37 -1.383,-5.144 0.844,-13.279 0,-21 -1.055,4.612 -9.562,1.771 -12,5 -6.61,-2.18 -3.38,-12.56 -1,-17 z"
         clip-rule="evenodd"
         fill="#f5e0cd"
         id="path1020" />
      <path
         fill-rule="evenodd"
         d="m 313,125.14 c -5.024,-1.167 -8.718,2.553 -12,0 0.007,-4.327 2.321,-6.346 2,-11 6.192,1.825 10.324,-3.63 13,-2 -0.2,5.14 -2.64,8.03 -3,13 z"
         clip-rule="evenodd"
         fill="#f5e0cd"
         id="path1022" />
      <path
         fill-rule="evenodd"
         d="m 268,149.14 c 2.403,3.597 8.918,3.082 15,3 -0.492,21.528 -7.853,61.67 -40,46 0.744,-16.256 5.623,-28.377 12,-39 -16.502,-18.84 15.388,-53.628 33,-32 -2.079,3.941 -12.264,5.042 -17,3 -3.34,3.53 -5.19,13.21 -3,19 z"
         clip-rule="evenodd"
         fill="#f5e0cd"
         id="path1024" />
      <path
         fill-rule="evenodd"
         d="m 228,182.14 c 1.562,4.486 12.311,3.861 14,0 2.589,11.636 -4.719,21.291 -9,30 -6.998,14.236 -14.289,26.938 -38,21 1.168,-12.554 8.496,-27.464 19,-34 -2.082,-6.584 -4.56,-12.774 -10,-16 -0.416,-23.783 35.293,-51.764 48,-23 -5.42,3.247 -12.535,4.799 -20,6 0.27,6.94 -4.03,9.31 -4,16 z"
         clip-rule="evenodd"
         fill="#f5e0cd"
         id="path1026" />
      <path
         fill-rule="evenodd"
         d="m 241,182.14 c -4.276,0.091 -7.324,2.004 -11,0 0.758,-5.909 2.188,-11.146 4,-16 4.696,1.723 12.146,0.17 15,-3 2.35,3.53 -5.41,13.8 -8,19 z"
         clip-rule="evenodd"
         fill="#f5e0cd"
         id="path1028" />
      <path
         fill-rule="evenodd"
         d="m 180,212.14 c 0.385,-3.282 2.924,-4.409 4,-7 5.74,2.432 13.053,2.149 20,1 -2.88,7.19 -16.04,12.93 -24,6 z"
         clip-rule="evenodd"
         fill="#f5e0cd"
         id="path1030" />
      <path
         fill-rule="evenodd"
         d="m 210,40.143 c 36.762,13.238 43.709,56.292 72,78 5.777,-2.977 7.732,-16.783 17,-20 4,-1.389 7.428,-0.303 13,0 10.343,6.078 3.548,14.573 3,28 -0.195,4.777 1.244,9.318 1,13 -1.073,16.164 -11.542,29.482 -19,34 h -10 c -6.322,17.735 -17.99,39.472 -44,31 -9.621,16.428 -19.951,42.651 -50,32 -11.928,8.096 -24.301,19.789 -39,18 -23.636,-2.876 -28.142,-45.829 -39,-66 -4.59,-8.526 -10.595,-15.543 -14,-22 -6.166,-11.693 -6.056,-21.342 -20,-11 -15.843,11.751 -24.442,41.505 -59,35 -7.082,-1.333 -22.01,-9.016 -22,-19 0.012,-12.379 30.214,-23.41 35,-30 2.743,-3.777 3.854,-9.537 7,-14 2.464,-3.496 7.59,-6.041 10,-10 3.83,-6.293 3.166,-15.789 7,-22 2.591,-4.197 7.75,-7.416 12,-13 7.9,-10.38 11.488,-22.684 25,-27 3.112,-6.239 -0.192,-10.285 1,-17 7.48,-42.113 112.96,-59.686 113,2.003 z m -25,-2 c 7.992,0.008 16.368,-0.368 23,1 -4.239,-58.268 -119.31,-42.928 -109,15 11.893,0.22 15.396,-13.262 25,-12 -2.661,4.006 -10.421,2.912 -12,8 2.932,0.275 3.714,-4.006 5,0 -10.791,5.566 -21.709,5.517 -30,12 -11.457,8.959 -14.714,25.053 -27,33 -2.056,16.277 -8.773,27.893 -19,36 -1.963,6.111 -3.977,11.015 -8,15 -6.627,6.565 -30.136,15.4 -31,23 -0.945,8.312 13.286,15.702 21,17 22.465,3.781 45.802,-11.62 46,-33 2.168,-0.168 0.453,3.547 1,5 7.986,-4.014 11.273,-12.727 21,-15 0.637,2.182 -2.834,3.182 1,3 4.051,1.707 5.79,3.996 8,8 13.697,24.815 27.148,55.435 36,83 5.212,3.787 8.952,9.048 14,13 24.377,-1.958 46.174,-11.825 46,-35 -11.795,8.502 -23.371,-6.81 -11,-13 8.224,6.919 19.414,1.321 27,-3 -1.973,-7.693 -6.827,-12.506 -12,-17 -31.046,-4.711 -35.648,22.351 -47,34 1.762,-1.948 5.387,-7.222 3,-10 -4.166,1.523 -9.605,7.031 -12,7 2.6,-5.066 7.393,-7.94 15,-8 5.207,-9.529 16.791,-21.521 -2,-26 3.405,-1.733 5.865,0.769 11,0 1.258,2.742 2.26,5.739 5,7 7.192,-5.211 21.129,-10.163 31,-4 1.646,-7.313 -2.324,-9.01 -5,-12 -7.381,-0.714 -12.069,1.264 -17,3 3.906,-6.133 19.471,-6.98 23,0 5.18,-15.962 22.953,-35.627 43,-24 2.234,-18.1 12.107,-28.56 28,-33 C 247.86,87.947 240.88,38.6 185,38.146 Z m 19,168 c -6.947,1.149 -14.26,1.432 -20,-1 -1.076,2.591 -3.615,3.718 -4,7 7.96,6.93 21.12,1.19 24,-6 z m 28,-40 c 7.465,-1.201 14.58,-2.753 20,-6 -12.707,-28.764 -48.416,-0.783 -48,23 5.44,3.226 7.918,9.416 10,16 -10.504,6.536 -17.832,21.446 -19,34 23.711,5.938 31.002,-6.764 38,-21 4.281,-8.709 11.589,-18.364 9,-30 -1.689,3.861 -12.438,4.486 -14,0 -0.03,-6.69 4.27,-9.06 4,-16 z m 17,-3 c -2.854,3.17 -10.304,4.723 -15,3 -1.812,4.854 -3.242,10.091 -4,16 3.676,2.004 6.724,0.091 11,0 2.59,-5.2 10.35,-15.47 8,-19 z m 22,-33 c 4.736,2.042 14.921,0.941 17,-3 -17.612,-21.628 -49.502,13.16 -33,32 -6.377,10.623 -11.256,22.744 -12,39 32.147,15.67 39.508,-24.472 40,-46 -6.082,0.082 -12.597,0.597 -15,-3 -2.19,-5.79 -0.34,-15.47 3,-19 z m 1,20 c 2.438,-3.229 10.945,-0.388 12,-5 0.844,7.721 -1.383,15.856 0,21 22.748,4.439 30.478,-13.965 29,-37 -5.92,0.254 -11.883,0.55 -13,-4 0.049,-5.284 0.446,-10.22 2,-14 4.713,2.917 9.826,-1.173 14,-2 -6.093,-20.327 -30.286,-3.453 -31,11 1.868,2.465 4.771,3.896 5,8 -2.266,5.068 -3.183,11.484 -6,16 -1.236,-6.569 2.976,-7.69 3,-13 -5.816,1.723 -11.408,3.838 -16,2 -2.38,4.44 -5.61,14.82 1,17 z m 44,-38 c -2.676,-1.63 -6.808,3.825 -13,2 0.321,4.654 -1.993,6.673 -2,11 3.282,2.553 6.976,-1.167 12,0 0.36,-4.97 2.8,-7.86 3,-13 z"
         clip-rule="evenodd"
         id="path1032" />
      <path
         fill-rule="evenodd"
         d="m 144,119.14 c -6.497,6.17 -14.221,11.113 -24,14 7.88,-4.79 16.07,-9.26 24,-14 z"
         clip-rule="evenodd"
         id="path1034" />
      <path
         clip-rule="evenodd"
         inkscape:connector-curvature="0"
         sodipodi:nodetypes="cccccccccccccccccccccccccsccccccccccccccccc"
         d="m 276,116.14 c -15.893,4.44 -25.766,14.9 -28,33 -20.047,-11.627 -37.82,8.038 -43,24 -3.529,-6.98 -19.094,-6.133 -23,0 4.931,-1.736 9.619,-3.714 17,-3 2.676,2.99 6.646,4.687 5,12 -9.871,-6.163 -23.808,-1.211 -31,4 -2.74,-1.261 -3.742,-4.258 -5,-7 -5.135,0.769 -7.595,-1.733 -11,0 18.791,4.479 7.207,16.471 2,26 -7.607,0.06 -12.4,2.934 -15,8 2.395,0.031 7.834,-5.477 12,-7 2.387,2.778 -1.238,8.052 -3,10 11.352,-11.649 15.954,-38.711 47,-34 5.173,4.494 10.027,9.307 12,17 -7.586,4.321 -18.776,9.919 -27,3 -12.371,6.19 -0.795,21.502 11,13 0.174,23.175 -21.623,33.042 -46,35 -5.048,-3.952 -8.788,-9.213 -14,-13 -8.852,-27.565 -22.303,-58.185 -36,-83 -2.21,-4.004 -3.949,-6.293 -8,-8 -3.834,0.182 -0.363,-0.818 -1,-3 -9.727,2.273 -13.014,10.986 -21,15 -0.547,-1.453 1.168,-5.168 -1,-5 -0.198,21.38 -23.535,36.781 -46,33 -7.714,-1.298 -21.945,-8.688 -21,-17 0.864,-7.6 24.373,-16.435 31,-23 4.023,-3.985 6.037,-8.889 8,-15 10.227,-8.107 16.944,-19.723 19,-36 12.286,-7.947 15.543,-24.041 27,-33 8.291,-6.483 19.209,-6.434 30,-12 -1.286,-4.006 -2.068,0.275 -5,0 1.579,-5.088 9.339,-3.994 12,-8 -9.604,-1.262 -13.107,12.22 -25,12 -10.31,-57.928 104.76,-73.268 109,-15 -6.632,-1.368 -15.008,-0.992 -23,-1 55.879,0.454 62.865,49.801 91,78 z m -156,17 c 9.779,-2.887 17.503,-7.83 24,-14 -7.929,4.738 -16.123,9.211 -24,14 z m -12,1 c 5.53,8.531 21.141,-0.351 26,-5 -7.526,2.576 -17.068,10.02 -26,5 z"
         style="fill:#f5e0cd;fill-rule:evenodd"
         id="path1036" />
      <path
         fill-rule="evenodd"
         d="m 134,129.14 c -4.859,4.649 -20.47,13.531 -26,5 8.93,5.02 18.47,-2.42 26,-5 z"
         clip-rule="evenodd"
         id="path1038" />
    </g>
    <g
       id="g1018"
       transform="matrix(0.66645998,0,0,0.68573158,1.0631749,44.087477)">
      <path
         id="path1004"
         style="fill:none;stroke:#000000;stroke-width:6;stroke-linecap:round;stroke-linejoin:round"
         d="m 15.454,21.608 4.879,25.876 c -3.7786,6.3618 -5.9245,13.63 -5.9245,21.346 0,25.017 22.513,45.305 50.271,45.305 27.758,0 50.315,-20.288 50.315,-45.305 0,-7.4745 -2.0588,-14.519 -5.6196,-20.736 l 4.879,-25.833 -20.562,9.5402 c -8.1959,-5.2251 -18.217,-8.3205 -29.013,-8.3205 -10.481,0 -20.213,2.8909 -28.272,7.8413 l -20.948,-9.714 z" />
      <path
         id="path1006"
         style="fill:#ffffff;stroke:#000000;stroke-width:3.9782;stroke-linecap:round;stroke-linejoin:round"
         d="m 15.454,21.608 4.879,25.876 c -3.7786,6.3618 -5.9245,13.63 -5.9245,21.346 0,25.017 22.513,45.305 50.271,45.305 27.758,0 50.315,-20.288 50.315,-45.305 0,-7.4745 -2.0588,-14.519 -5.6196,-20.736 l 4.879,-25.833 -20.562,9.5402 c -8.1959,-5.2251 -18.217,-8.3205 -29.013,-8.3205 -10.481,0 -20.213,2.8909 -28.272,7.8413 l -20.948,-9.714 z" />
      <circle
         id="circle1008"
         style="fill:#000000"
         transform="matrix(1.9388,0.8723,-0.8723,1.9388,-50.299,-95.029)"
         cx="72"
         cy="48"
         r="4" />
      <circle
         id="circle1010"
         style="fill:#ffffff"
         transform="matrix(0.76796,0.34552,-0.34552,0.76796,11.205,-1.3029)"
         cx="72"
         cy="48"
         r="4" />
      <circle
         id="circle1012"
         style="fill:#000000"
         transform="matrix(1.9388,0.8723,-0.8723,1.9388,-15.389,-95.1)"
         cx="72"
         cy="48"
         r="4" />
      <circle
         id="circle1014"
         style="fill:#ffffff"
         transform="matrix(0.76796,0.34552,-0.34552,0.76796,46.115,-1.3742)"
         cx="72"
         cy="48"
         r="4" />
      <path
         id="path1016"
         sodipodi:nodetypes="csccsc"
         style="fill:none;stroke:#000000;stroke-width:2.788;stroke-linecap:round;stroke-linejoin:round"
         d="m 41.227,86.168 c 0.71997,5.451 3.9594,11.035 11.152,11.152 9.5596,0.15794 17.384,-10.258 19.682,-17.547 -5.2586,-0.76083 -10.517,-0.71929 -15.776,-0.23408 2.2988,6.9385 10.416,17.652 18.397,17.781 7.6568,0.12382 10.288,-4.9103 11.152,-11.152" />
    </g>
  </g>
</svg>
